<?xml version="1.0" standalone="no"?>
<!DOCTYPE svg PUBLIC "-//W3C//DTD SVG 20010904//EN"
 "http://www.w3.org/TR/2001/REC-SVG-20010904/DTD/svg10.dtd">
<svg version="1.0" xmlns="http://www.w3.org/2000/svg"
 width="389.000000pt" height="389.000000pt" viewBox="0 0 389.000000 389.000000"
 preserveAspectRatio="xMidYMid meet">
<metadata>
Created by potrace 1.14, written by Peter Selinger 2001-2017
</metadata>
<g transform="translate(0.000000,389.000000) scale(0.100000,-0.100000)"
fill="#000000" stroke="none">
<path d="M361 3874 c-152 -41 -271 -149 -333 -302 l-23 -57 -3 -1534 c-1
-1004 1 -1554 8 -1590 24 -133 123 -268 242 -331 120 -63 24 -60 1699 -60
1495 0 1528 1 1589 20 172 55 290 175 334 341 22 81 22 3087 0 3168 -45 167
-178 300 -345 345 -81 22 -3087 22 -3168 0z"/>
</g>
</svg>
